<svg width="1106" height="364" viewBox="0 0 1106 364" fill="none" xmlns="http://www.w3.org/2000/svg">
<path d="M934.731 269.044L1006.07 170.526V198.538L937.812 102.87H981.42L1028.58 169.577L1010.33 169.814L1056.79 102.87H1098.5L1030.72 196.877V169.339L1102.53 269.044H1058.21L1009.39 198.538H1026.92L978.813 269.044H934.731Z" fill="url(#paint0_linear_540_34)"/>
<path d="M869.817 270.943C859.073 270.943 849.672 268.569 841.614 263.821C833.556 259.073 827.236 251.872 822.654 242.218C818.23 232.406 816.018 220.062 816.018 205.185C816.018 190.15 818.151 177.806 822.417 168.152C826.683 158.498 832.845 151.297 840.903 146.55C848.961 141.802 858.599 139.428 869.817 139.428C881.825 139.428 892.569 142.197 902.049 147.737C911.687 153.117 919.271 160.714 924.801 170.526C930.489 180.338 933.333 191.891 933.333 205.185C933.333 218.637 930.489 230.27 924.801 240.082C919.271 249.894 911.687 257.49 902.049 262.871C892.569 268.252 881.825 270.943 869.817 270.943ZM794.451 315.097V141.327H829.764V167.44L829.053 205.423L831.423 243.168V315.097H794.451ZM863.418 240.557C869.58 240.557 875.031 239.132 879.771 236.284C884.669 233.435 888.54 229.399 891.384 224.177C894.386 218.796 895.887 212.465 895.887 205.185C895.887 197.747 894.386 191.417 891.384 186.194C888.54 180.971 884.669 176.936 879.771 174.087C875.031 171.238 869.58 169.814 863.418 169.814C857.256 169.814 851.726 171.238 846.828 174.087C841.93 176.936 838.059 180.971 835.215 186.194C832.371 191.417 830.949 197.747 830.949 205.185C830.949 212.465 832.371 218.796 835.215 224.177C838.059 229.399 841.93 233.435 846.828 236.284C851.726 239.132 857.256 240.557 863.418 240.557Z" fill="black"/>
<path d="M728.758 269.044V244.117L726.388 238.657V194.028C726.388 186.115 723.939 179.943 719.041 175.511C714.301 171.08 706.954 168.864 697 168.864C690.206 168.864 683.491 169.972 676.855 172.188C670.377 174.245 664.847 177.094 660.265 180.734L646.993 154.858C653.945 149.952 662.319 146.154 672.115 143.464C681.911 140.773 691.865 139.428 701.977 139.428C721.411 139.428 736.5 144.017 747.244 153.197C757.988 162.376 763.36 176.698 763.36 196.164V269.044H728.758ZM689.89 270.943C679.936 270.943 671.404 269.281 664.294 265.957C657.184 262.476 651.733 257.807 647.941 251.951C644.149 246.096 642.253 239.528 642.253 232.248C642.253 224.651 644.07 218.004 647.704 212.307C651.496 206.61 657.421 202.178 665.479 199.013C673.537 195.69 684.044 194.028 697 194.028H730.891V215.63H701.029C692.339 215.63 686.335 217.055 683.017 219.904C679.857 222.752 678.277 226.313 678.277 230.586C678.277 235.334 680.094 239.132 683.728 241.981C687.52 244.671 692.655 246.017 699.133 246.017C705.295 246.017 710.825 244.592 715.723 241.744C720.621 238.737 724.176 234.384 726.388 228.687L732.076 245.779C729.39 254.009 724.492 260.26 717.382 264.533C710.272 268.806 701.108 270.943 689.89 270.943Z" fill="black"/>
<path d="M566.553 139.428C576.665 139.428 585.671 141.485 593.571 145.6C601.629 149.557 607.949 155.729 612.531 164.117C617.113 172.346 619.404 182.95 619.404 195.927V269.044H582.432V201.624C582.432 191.337 580.141 183.741 575.559 178.835C571.135 173.929 564.815 171.476 556.599 171.476C550.753 171.476 545.46 172.742 540.72 175.274C536.138 177.648 532.504 181.367 529.818 186.431C527.29 191.496 526.026 197.984 526.026 205.897V269.044H489.054V141.327H524.367V176.698L517.731 166.016C522.313 157.47 528.87 150.902 537.402 146.312C545.934 141.723 555.651 139.428 566.553 139.428Z" fill="black"/>
<path d="M397.408 271.892C384.136 271.892 371.417 270.151 359.251 266.67C347.085 263.03 337.289 258.361 329.863 252.663L342.898 223.702C350.008 228.766 358.382 232.96 368.02 236.284C377.816 239.449 387.691 241.031 397.645 241.031C405.229 241.031 411.312 240.319 415.894 238.895C420.634 237.312 424.11 235.176 426.322 232.485C428.534 229.795 429.64 226.709 429.64 223.227C429.64 218.796 427.902 215.314 424.426 212.782C420.95 210.091 416.368 207.955 410.68 206.372C404.992 204.631 398.672 203.049 391.72 201.624C384.926 200.042 378.053 198.143 371.101 195.927C364.307 193.711 358.066 190.863 352.378 187.381C346.69 183.899 342.029 179.31 338.395 173.612C334.919 167.915 333.181 160.635 333.181 151.772C333.181 142.277 335.709 133.651 340.765 125.897C345.979 117.983 353.721 111.732 363.991 107.143C374.419 102.395 387.454 100.021 403.096 100.021C413.524 100.021 423.794 101.287 433.906 103.819C444.018 106.193 452.945 109.833 460.687 114.739L448.837 143.938C441.095 139.507 433.353 136.263 425.611 134.205C417.869 131.99 410.285 130.882 402.859 130.882C395.433 130.882 389.35 131.752 384.61 133.493C379.87 135.234 376.473 137.529 374.419 140.377C372.365 143.068 371.338 146.233 371.338 149.873C371.338 154.146 373.076 157.628 376.552 160.318C380.028 162.85 384.61 164.908 390.298 166.49C395.986 168.073 402.227 169.656 409.021 171.238C415.973 172.821 422.846 174.641 429.64 176.698C436.592 178.756 442.912 181.525 448.6 185.007C454.288 188.489 458.87 193.078 462.346 198.776C465.98 204.473 467.797 211.674 467.797 220.378C467.797 229.716 465.19 238.262 459.976 246.017C454.762 253.771 446.941 260.023 436.513 264.77C426.243 269.518 413.208 271.892 397.408 271.892Z" fill="black"/>
<path d="M224.699 143.581C209.971 166.028 167.779 164.175 130.459 139.444C93.1398 114.713 74.8257 76.4681 89.5536 54.0217C103.735 35.306 146.474 33.4275 183.794 58.1587C221.113 82.8899 239.427 121.135 224.699 143.581Z" fill="#065F46"/>
<path d="M97.7717 47.2578C100.641 45.037 104.298 43.2673 108.543 42.003C165.511 19.826 232.278 78.3036 248.531 127.617C259.435 160.703 259.267 183.446 253.693 208.522C246.659 240.17 205.256 337.203 168.938 262.596C150.778 225.293 178.114 191.556 196.521 160.8C209.67 138.831 217.407 104.017 205.178 84.6587C180.047 44.8749 133.841 34.4691 108.543 42.003C104.908 43.4183 101.312 45.1621 97.7717 47.2578Z" fill="url(#paint1_linear_540_34)"/>
<path d="M53.2098 225.05C82.5968 214.623 125.691 233.05 149.464 266.206C173.236 299.363 168.685 334.694 139.298 345.121C112.802 353.045 66.8167 337.121 43.044 303.965C19.2714 270.808 23.8227 235.477 53.2098 225.05Z" fill="#065F46"/>
<path d="M126.48 346.732C122.091 347.193 117.157 347.005 111.92 346.21C38.4062 339.347 4.71529 269.637 18.3039 227.06C27.4209 198.493 41.7242 181.959 63.1445 165.908C90.1792 145.65 193.869 91.5666 185.612 160.729C181.483 195.311 131.862 208.878 93.4544 223.882C66.0203 234.599 36.2819 256.883 37.0807 275.964C38.7224 315.178 80.7123 341.472 111.92 346.21C116.612 346.648 121.466 346.83 126.48 346.732Z" fill="url(#paint2_linear_540_34)"/>
<defs>
<linearGradient id="paint0_linear_540_34" x1="1018.63" y1="102.87" x2="1018.63" y2="269.044" gradientUnits="userSpaceOnUse">
<stop stop-color="#00CC83"/>
<stop offset="1" stop-color="#526480"/>
</linearGradient>
<linearGradient id="paint1_linear_540_34" x1="241.668" y1="110.835" x2="120.591" y2="187.319" gradientUnits="userSpaceOnUse">
<stop stop-color="#6EE7B7"/>
<stop offset="1" stop-color="#34D399"/>
</linearGradient>
<linearGradient id="paint2_linear_540_34" x1="15.0756" y1="242.089" x2="189.531" y2="234.785" gradientUnits="userSpaceOnUse">
<stop stop-color="#6EE7B7"/>
<stop offset="1" stop-color="#34D399"/>
</linearGradient>
</defs>
</svg>
