<svg id="img_logo" xmlns="http://www.w3.org/2000/svg" xmlns:xlink="http://www.w3.org/1999/xlink" width="140.298" height="40" viewBox="0 0 140.298 40">
  <defs>
    <clipPath id="clip-path">
      <rect id="사각형_184" data-name="사각형 184" width="140.298" height="40" fill="none"/>
    </clipPath>
    <clipPath id="clip-path-2">
      <path id="패스_1352" data-name="패스 1352" d="M87.161,0a9.227,9.227,0,0,0-3.352.624,4.248,4.248,0,0,0-1.39.678,9.465,9.465,0,0,1,1.39-.678c3.265-.972,9.227.371,12.47,5.5,1.578,2.5.58,6.991-1.117,9.826-2.376,3.969-5.9,8.323-3.56,13.137,4.687,9.628,10.03-2.894,10.937-6.978a18.009,18.009,0,0,0-.666-10.441C100.093,6.269,93.613.012,87.2,0Z" transform="translate(-82.419)" fill="none"/>
    </clipPath>
    <linearGradient id="linear-gradient" x1="-0.047" y1="0.971" x2="-0.044" y2="0.971" gradientUnits="objectBoundingBox">
      <stop offset="0" stop-color="#6ee7b7"/>
      <stop offset="1" stop-color="#34d399"/>
    </linearGradient>
    <clipPath id="clip-path-4">
      <path id="패스_1354" data-name="패스 1354" d="M14.341,117.857a16.694,16.694,0,0,1-1.879-.067,7.47,7.47,0,0,0,1.879.067M6.168,94.523a14.687,14.687,0,0,0-5.787,7.892c-1.754,5.494,2.594,14.49,12.081,15.376-4.027-.612-9.446-4-9.658-9.065-.1-2.462,3.735-5.338,7.275-6.721,4.956-1.936,11.36-3.687,11.893-8.15.39-3.266-1.154-4.4-3.44-4.4-3.962,0-10.151,3.413-12.364,5.071" transform="translate(0 -89.452)" fill="none"/>
    </clipPath>
    <linearGradient id="linear-gradient-2" x1="0.079" y1="0.983" x2="0.084" y2="0.983" xlink:href="#linear-gradient"/>
  </defs>
  <path id="패스_1346" data-name="패스 1346" d="M935.13,65.706l-4.818,6.942L925.4,65.706h-5.628l7.51,10.525L919.379,87.15h5.689l5.085-7.453,5.161,7.453h5.719l-7.987-11.089,7.467-10.356Z" transform="translate(-800.735 -57.227)" fill="#fff"/>
  <g id="그룹_405" data-name="그룹 405">
    <g id="그룹_404" data-name="그룹 404" clip-path="url(#clip-path)">
      <path id="패스_1347" data-name="패스 1347" d="M792.984,103.336a8.09,8.09,0,0,0-4.159-1.072,7.223,7.223,0,0,0-3.731.919,5.434,5.434,0,0,0-1.437,1.231v-1.9H779.1v22.425h4.771v-7.69a5.667,5.667,0,0,0,1.315,1.073,7.036,7.036,0,0,0,3.639.919,8.277,8.277,0,0,0,4.159-1.042,7.534,7.534,0,0,0,2.936-2.941,9.7,9.7,0,0,0,0-8.976,7.533,7.533,0,0,0-2.936-2.941m-1.376,9.864a3.951,3.951,0,0,1-1.5,1.562,4.019,4.019,0,0,1-2.11.551,4.181,4.181,0,0,1-2.141-.551,3.95,3.95,0,0,1-1.5-1.562,5.172,5.172,0,0,1-.551-2.451,5.059,5.059,0,0,1,.551-2.451,3.95,3.95,0,0,1,1.5-1.562,4.18,4.18,0,0,1,2.141-.551,4.018,4.018,0,0,1,2.11.551,3.95,3.95,0,0,1,1.5,1.562,4.843,4.843,0,0,1,.581,2.451,4.951,4.951,0,0,1-.581,2.451" transform="translate(-678.558 -89.067)" fill="#fff"/>
      <path id="패스_1348" data-name="패스 1348" d="M640.45,104.041a8.724,8.724,0,0,0-5.842-1.777,14.481,14.481,0,0,0-3.853.521,10.306,10.306,0,0,0-3.242,1.47l1.712,3.339a6.631,6.631,0,0,1,2.141-1.1,8.16,8.16,0,0,1,2.6-.429,4.052,4.052,0,0,1,2.844.858,3.058,3.058,0,0,1,.948,2.39h-3.792a10.813,10.813,0,0,0-4.068.643,4.257,4.257,0,0,0-3,4.289,4.575,4.575,0,0,0,.734,2.543,5.121,5.121,0,0,0,2.11,1.807,7.749,7.749,0,0,0,3.3.643,6.81,6.81,0,0,0,3.548-.827,4.182,4.182,0,0,0,1.468-1.474v2.056h4.465v-9.4q0-3.768-2.08-5.545m-4.068,11.427a4.181,4.181,0,0,1-2.141.551,3.376,3.376,0,0,1-1.988-.521,1.874,1.874,0,0,1-.092-2.849,3.651,3.651,0,0,1,2.324-.552h3.272v1.685a3.323,3.323,0,0,1-1.376,1.685" transform="translate(-546.002 -89.067)" fill="#fff"/>
      <path id="패스_1349" data-name="패스 1349" d="M487.19,103.061a7.436,7.436,0,0,0-3.487-.8,7.816,7.816,0,0,0-3.762.888,6.142,6.142,0,0,0-1.682,1.319v-1.963H473.7v16.482h4.771v-8.149a5.623,5.623,0,0,1,.489-2.512,3.31,3.31,0,0,1,1.407-1.44,4.28,4.28,0,0,1,2.049-.49,3.126,3.126,0,0,1,2.447.95,4.192,4.192,0,0,1,.887,2.941v8.7h4.771v-9.436a8.386,8.386,0,0,0-.887-4.1,5.529,5.529,0,0,0-2.447-2.39" transform="translate(-412.572 -89.067)" fill="#fff"/>
      <path id="패스_1350" data-name="패스 1350" d="M329.834,73.824a10.217,10.217,0,0,0-2.447-1.072q-1.315-.4-2.661-.7-1.315-.306-2.416-.613a5.517,5.517,0,0,1-1.774-.8,1.628,1.628,0,0,1-.673-1.348,1.962,1.962,0,0,1,.4-1.225,2.721,2.721,0,0,1,1.315-.888,6.933,6.933,0,0,1,2.355-.337,10.645,10.645,0,0,1,2.936.429,12.51,12.51,0,0,1,3,1.256l1.529-3.768a11.175,11.175,0,0,0-3.456-1.409,16.3,16.3,0,0,0-3.976-.49,12.184,12.184,0,0,0-5.046.919,6.778,6.778,0,0,0-3,2.42,5.984,5.984,0,0,0-.979,3.339,5.339,5.339,0,0,0,.673,2.818,5.557,5.557,0,0,0,1.8,1.777,11.347,11.347,0,0,0,2.416,1.1q1.346.429,2.661.735,1.346.276,2.447.613a5.122,5.122,0,0,1,1.774.827,1.577,1.577,0,0,1,.673,1.348,1.828,1.828,0,0,1-.428,1.195,2.872,2.872,0,0,1-1.346.827,8.17,8.17,0,0,1-2.355.276,12.367,12.367,0,0,1-3.823-.613,12.68,12.68,0,0,1-3.242-1.624l-1.682,3.737a11.724,11.724,0,0,0,3.792,1.808,17.813,17.813,0,0,0,4.924.674,12.053,12.053,0,0,0,5.046-.919A7.04,7.04,0,0,0,331.3,81.7a5.8,5.8,0,0,0,1.009-3.309,5.093,5.093,0,0,0-.7-2.788,5.276,5.276,0,0,0-1.774-1.777" transform="translate(-273.924 -54.745)" fill="#fff"/>
      <path id="패스_1351" data-name="패스 1351" d="M87.208,16.017c-1.9,2.9-7.345,2.658-12.161-.534S67.867,7.356,69.768,4.46c1.83-2.415,7.345-2.658,12.161.534s7.179,8.127,5.279,11.024" transform="translate(-60.192 -2.284)" fill="#065f46"/>
    </g>
  </g>
  <g id="그룹_407" data-name="그룹 407" transform="translate(10.636)">
    <g id="그룹_406" data-name="그룹 406" clip-path="url(#clip-path-2)">
      <rect id="사각형_185" data-name="사각형 185" width="38.502" height="44.171" transform="matrix(0.845, -0.534, 0.534, 0.845, -17.64, 10.795)" fill="url(#linear-gradient)"/>
    </g>
  </g>
  <g id="그룹_409" data-name="그룹 409">
    <g id="그룹_408" data-name="그룹 408" clip-path="url(#clip-path)">
      <path id="패스_1353" data-name="패스 1353" d="M15.736,185.347c3.792-1.346,9.354,1.032,12.421,5.311s2.48,8.838-1.312,10.184c-3.419,1.023-9.353-1.032-12.421-5.311s-2.48-8.838,1.312-10.184" transform="translate(-10.851 -161.101)" fill="#065f46"/>
    </g>
  </g>
  <g id="그룹_411" data-name="그룹 411" transform="translate(0 11.544)">
    <g id="그룹_410" data-name="그룹 410" clip-path="url(#clip-path-4)">
      <rect id="사각형_187" data-name="사각형 187" width="24.904" height="29.433" transform="translate(-2.562 0.05) rotate(-2.397)" fill="url(#linear-gradient-2)"/>
    </g>
  </g>
</svg>
