<svg id="ic_telegram" xmlns="http://www.w3.org/2000/svg" width="108.142" height="108.142" viewBox="0 0 108.142 108.142">
  <path id="패스_7" data-name="패스 7" d="M54.071,108.142A54.071,54.071,0,1,0,0,54.071,54.071,54.071,0,0,0,54.071,108.142Z" fill="#34aadf"/>
  <path id="패스_8" data-name="패스 8" d="M90.467,168.07s27.035-11.1,36.412-15c3.595-1.563,15.784-6.563,15.784-6.563s5.626-2.188,5.157,3.125c-.156,2.188-1.407,9.845-2.657,18.128-1.875,11.721-3.907,24.535-3.907,24.535s-.313,3.594-2.969,4.219-7.032-2.188-7.814-2.813c-.625-.469-11.721-7.5-15.784-10.939-1.094-.937-2.344-2.813.156-5,5.626-5.157,12.346-11.564,16.409-15.627,1.875-1.875,3.75-6.251-4.063-.938-11.1,7.657-22.034,14.846-22.034,14.846s-2.5,1.563-7.189.156-10.158-3.282-10.158-3.282S84.06,170.571,90.467,168.07Z" transform="translate(-67.964 -114.468)" fill="#fff"/>
</svg>
