<svg xmlns="http://www.w3.org/2000/svg" xmlns:xlink="http://www.w3.org/1999/xlink" width="108.078" height="116.94" viewBox="0 0 108.078 116.94">
  <defs>
    <clipPath id="clip-path">
      <rect id="사각형_168" data-name="사각형 168" width="84.349" height="108" fill="none"/>
    </clipPath>
    <clipPath id="clip-path-2">
      <path id="패스_1284" data-name="패스 1284" d="M95.222,0a24.913,24.913,0,0,0-9.049,1.686,11.47,11.47,0,0,0-3.753,1.831,25.56,25.56,0,0,1,3.753-1.831c8.815-2.625,24.914,1,33.67,14.862,4.261,6.745,1.565,18.875-3.016,26.53-6.414,10.716-15.938,22.471-9.611,35.469,12.654,26,27.08-7.814,29.531-18.841,1.942-8.737,2-16.662-1.8-28.19C130.139,16.926,112.643.032,95.318,0Z" transform="translate(-82.419)" fill="none"/>
    </clipPath>
    <linearGradient id="linear-gradient" x1="-0.047" y1="0.971" x2="-0.044" y2="0.971" gradientUnits="objectBoundingBox">
      <stop offset="0" stop-color="#6ee7b7"/>
      <stop offset="1" stop-color="#34d399"/>
    </linearGradient>
    <clipPath id="clip-path-4">
      <path id="패스_1286" data-name="패스 1286" d="M38.72,166.147a45.082,45.082,0,0,1-5.073-.182,20.168,20.168,0,0,0,5.073.182m-22.068-63C9.189,108.735,4.205,114.5,1.029,124.45c-4.735,14.835,7,39.124,32.618,41.515-10.873-1.651-25.5-10.812-26.076-24.476-.278-6.648,10.083-14.413,19.642-18.147,13.382-5.228,30.672-9.955,32.11-22,1.053-8.818-3.116-11.886-9.289-11.886-10.7,0-27.409,9.215-33.382,13.69" transform="translate(0 -89.452)" fill="none"/>
    </clipPath>
    <linearGradient id="linear-gradient-2" x1="0.079" y1="0.983" x2="0.084" y2="0.983" xlink:href="#linear-gradient"/>
  </defs>
  <g id="ic_snapxtel" transform="translate(-172.11 -320.13)">
    <g id="그룹_367" data-name="그룹 367" transform="translate(172.11 320.13)">
      <g id="그룹_360" data-name="그룹 360">
        <g id="그룹_359" data-name="그룹 359" clip-path="url(#clip-path)">
          <path id="패스_1283" data-name="패스 1283" d="M117.973,38.788c-5.132,7.821-19.833,7.176-32.836-1.441S65.753,15.4,70.885,7.583C75.826,1.062,90.717.407,103.721,9.024S123.1,30.967,117.973,38.788" transform="translate(-45.031 -1.709)" fill="#065f46"/>
        </g>
      </g>
      <g id="그룹_362" data-name="그룹 362" transform="translate(28.717)">
        <g id="그룹_361" data-name="그룹 361" clip-path="url(#clip-path-2)">
          <rect id="사각형_169" data-name="사각형 169" width="103.956" height="119.261" transform="matrix(0.845, -0.534, 0.534, 0.845, -47.627, 29.147)" fill="url(#linear-gradient)"/>
        </g>
      </g>
      <g id="그룹_364" data-name="그룹 364">
        <g id="그룹_363" data-name="그룹 363" clip-path="url(#clip-path)">
          <path id="패스_1285" data-name="패스 1285" d="M21.308,185.986c10.239-3.633,25.255,2.787,33.538,14.34s6.7,23.863-3.542,27.5c-9.232,2.761-25.254-2.787-33.538-14.34s-6.7-23.863,3.542-27.5" transform="translate(-8.118 -120.522)" fill="#065f46"/>
        </g>
      </g>
      <g id="그룹_366" data-name="그룹 366" transform="translate(0 31.168)">
        <g id="그룹_365" data-name="그룹 365" clip-path="url(#clip-path-4)">
          <rect id="사각형_171" data-name="사각형 171" width="67.241" height="79.469" transform="translate(-6.918 0.134) rotate(-2.397)" fill="url(#linear-gradient-2)"/>
        </g>
      </g>
    </g>
    <g id="ic_telegram" transform="translate(232.729 389.612)">
      <path id="패스_7" data-name="패스 7" d="M23.729,47.458A23.729,23.729,0,1,0,0,23.729,23.729,23.729,0,0,0,23.729,47.458Z" fill="#34aadf"/>
      <path id="패스_8" data-name="패스 8" d="M88.364,155.718s11.865-4.869,15.979-6.584c1.577-.686,6.927-2.88,6.927-2.88s2.469-.96,2.263,1.372c-.069.96-.617,4.321-1.166,7.955-.823,5.144-1.715,10.767-1.715,10.767s-.137,1.577-1.3,1.852-3.086-.96-3.429-1.234c-.274-.206-5.144-3.292-6.927-4.8a1.3,1.3,0,0,1,.069-2.194c2.469-2.263,5.418-5.075,7.2-6.858.823-.823,1.646-2.743-1.783-.412-4.869,3.361-9.67,6.515-9.67,6.515a4.03,4.03,0,0,1-3.155.069c-2.058-.617-4.458-1.44-4.458-1.44S85.552,156.816,88.364,155.718Z" transform="translate(-78.488 -132.195)" fill="#fff"/>
    </g>
  </g>
</svg>
